<svg width="116" height="35" viewBox="0 0 116 35" fill="none" xmlns="http://www.w3.org/2000/svg">
<g clip-path="url(#clip0_424_1181)">
<path fill-rule="evenodd" clip-rule="evenodd" d="M71.7048 27.3711C64.9882 32.3458 55.2528 35 46.8709 35C35.118 35 24.5374 30.632 16.5328 23.3671C15.9039 22.7958 16.4674 22.0172 17.2221 22.4621C25.8606 27.5127 36.5419 30.5511 47.5752 30.5511C55.0164 30.5511 63.2021 29.0041 70.7288 25.7938C71.8658 25.3084 72.8167 26.542 71.7048 27.3711Z" fill="#2D2D2D"/>
<path fill-rule="evenodd" clip-rule="evenodd" d="M74.4965 24.1608C73.6412 23.0587 68.8214 23.6401 66.658 23.8979C65.9989 23.9788 65.8982 23.4025 66.4919 22.9879C70.3307 20.2731 76.6298 21.0567 77.3643 21.9667C78.0989 22.8818 77.1731 29.2265 73.5658 32.2549C73.0123 32.72 72.4841 32.4722 72.7306 31.8555C73.5406 29.8231 75.3569 25.268 74.4965 24.1608Z" fill="#2D2D2D"/>
<path fill-rule="evenodd" clip-rule="evenodd" d="M66.8093 3.82216V1.18314C66.8093 0.783744 67.1112 0.515797 67.4734 0.515797H79.2313C79.6086 0.515797 79.9105 0.7888 79.9105 1.18314V3.44299C79.9054 3.82216 79.5885 4.31761 79.025 5.10123L72.9322 13.8424C75.1963 13.7868 77.5861 14.1255 79.6388 15.2883C80.1017 15.5512 80.2274 15.9354 80.2627 16.3146V19.1305C80.2627 19.5148 79.84 19.9647 79.3973 19.7322C75.7799 17.8262 70.9751 17.6189 66.9753 19.7524C66.5678 19.9748 66.1401 19.5299 66.1401 19.1457V16.4713C66.1401 16.0416 66.1452 15.3085 66.5728 14.6563L73.6316 4.48445H67.4885C67.1112 4.48445 66.8093 4.2165 66.8093 3.82216Z" fill="#2D2D2D"/>
<path fill-rule="evenodd" clip-rule="evenodd" d="M23.9178 20.2882H20.3406C19.9985 20.2629 19.7268 20.0051 19.7017 19.6764V1.22853C19.7017 0.859474 20.0086 0.566247 20.3909 0.566247H23.7266C24.0738 0.581403 24.3505 0.84936 24.3756 1.18303V3.59456H24.441C25.3114 1.26392 26.9466 0.176964 29.1502 0.176964C31.3891 0.176964 32.7878 1.26392 33.794 3.59456C34.6594 1.26392 36.6266 0.176964 38.7346 0.176964C40.2339 0.176964 41.8741 0.798803 42.8753 2.19415C44.0073 3.74622 43.7759 6.00102 43.7759 7.97777L43.7708 19.6208C43.7708 19.9899 43.4639 20.2882 43.0816 20.2882H39.5094C39.1522 20.2629 38.8654 19.9747 38.8654 19.6208V9.84329C38.8654 9.06472 38.9359 7.12337 38.7648 6.38525C38.4982 5.14663 37.6982 4.79779 36.6618 4.79779C35.7964 4.79779 34.8908 5.37918 34.5235 6.30942C34.1562 7.23965 34.1915 8.79677 34.1915 9.84329V19.6208C34.1915 19.9899 33.8846 20.2882 33.5022 20.2882H29.9301C29.5678 20.2629 29.2861 19.9747 29.2861 19.6208L29.281 9.84329C29.281 7.78566 29.6181 4.75734 27.0774 4.75734C24.5064 4.75734 24.6071 7.70982 24.6071 9.84329V19.6208C24.6071 19.9899 24.3002 20.2882 23.9178 20.2882" fill="#2D2D2D"/>
<path fill-rule="evenodd" clip-rule="evenodd" d="M90.0333 0.176964C95.3412 0.176964 98.214 4.75735 98.214 10.5814C98.214 16.2083 95.0393 20.6724 90.0333 20.6724C84.821 20.6724 81.9834 16.092 81.9834 10.3842C81.9834 4.64107 84.8562 0.176964 90.0333 0.176964ZM90.0635 3.9434C87.4271 3.9434 87.2611 7.5531 87.2611 9.80285C87.2611 12.0576 87.2259 16.8706 90.0333 16.8706C92.8055 16.8706 92.9363 12.9879 92.9363 10.6219C92.9363 9.06473 92.8709 7.20426 92.403 5.72802C92.0005 4.4439 91.2005 3.9434 90.0635 3.9434Z" fill="#2D2D2D"/>
<path fill-rule="evenodd" clip-rule="evenodd" d="M105.096 20.2882H101.534C101.177 20.2629 100.89 19.9747 100.89 19.6208L100.885 1.16786C100.915 0.829137 101.212 0.566247 101.575 0.566247H104.89C105.202 0.581403 105.459 0.793749 105.529 1.08192V3.90295H105.594C106.596 1.3802 107.999 0.176964 110.47 0.176964C112.075 0.176964 113.639 0.75836 114.646 2.35088C115.581 3.82711 115.581 6.30942 115.581 8.09404V19.7068C115.541 20.0303 115.244 20.2882 114.892 20.2882H111.305C110.978 20.2629 110.706 20.0202 110.671 19.7068V9.68656C110.671 7.66938 110.902 4.7169 108.432 4.7169C107.562 4.7169 106.762 5.30335 106.364 6.19314C105.861 7.32054 105.796 8.44288 105.796 9.68656V19.6208C105.791 19.9899 105.479 20.2882 105.096 20.2882" fill="#2D2D2D"/>
<path fill-rule="evenodd" clip-rule="evenodd" d="M57.4363 11.4763C57.4363 12.8767 57.4716 14.0445 56.7672 15.2882C56.1987 16.2993 55.2931 16.9211 54.2918 16.9211C52.9183 16.9211 52.1133 15.8696 52.1133 14.3175C52.1133 11.2538 54.8453 10.6977 57.4363 10.6977V11.4763ZM61.0437 20.2376C60.8072 20.45 60.4651 20.4651 60.1985 20.3236C59.0111 19.3327 58.7948 18.8726 58.1457 17.9272C56.1836 19.9393 54.7899 20.541 52.2492 20.541C49.2355 20.541 46.896 18.6754 46.896 14.9394C46.896 12.0223 48.4657 10.0354 50.7096 9.06473C52.6517 8.20527 55.3635 8.05361 57.4363 7.816V7.35088C57.4363 6.49648 57.5017 5.48536 56.9986 4.74724C56.5659 4.08495 55.7308 3.81195 54.9912 3.81195C53.6277 3.81195 52.4152 4.51468 52.1184 5.9707C52.058 6.29426 51.8215 6.61276 51.4945 6.62793L48.028 6.25381C47.7362 6.18809 47.4092 5.95047 47.4947 5.50053C48.2896 1.27404 52.0932 2.28882e-05 55.4943 2.28882e-05C57.2351 2.28882e-05 59.5092 0.46514 60.8827 1.78971C62.6235 3.42267 62.4575 5.60164 62.4575 7.97272V13.5743C62.4575 15.2579 63.1518 15.996 63.8058 16.906C64.0322 17.2295 64.0825 17.6188 63.7907 17.8615C63.0612 18.4732 61.7631 19.6107 61.0487 20.2477L61.0437 20.2376" fill="#2D2D2D"/>
<path fill-rule="evenodd" clip-rule="evenodd" d="M10.5403 11.4764C10.5403 12.8768 10.5755 14.0447 9.87118 15.2884C9.30266 16.2995 8.40208 16.9213 7.39584 16.9213C6.02233 16.9213 5.22237 15.8698 5.22237 14.3177C5.22237 11.254 7.9543 10.6979 10.5403 10.6979V11.4764ZM14.1477 20.2378C13.9112 20.4501 13.5691 20.4653 13.3024 20.3238C12.1151 19.3329 11.9038 18.8728 11.2497 17.9274C9.28756 19.9395 7.89896 20.5412 5.35318 20.5412C2.34453 20.5412 0 18.6756 0 14.9395C0 12.0225 1.57476 10.0356 3.81364 9.06492C5.75567 8.20547 8.46748 8.0538 10.5403 7.81619V7.35107C10.5403 6.49667 10.6057 5.48555 10.1076 4.74744C9.66993 4.08515 8.83476 3.81215 8.1002 3.81215C6.73676 3.81215 5.51921 4.51487 5.22237 5.97089C5.16199 6.29445 4.92553 6.61295 4.60353 6.62812L1.13202 6.254C0.840207 6.18828 0.518211 5.95067 0.59871 5.50072C1.39867 1.27423 5.19721 0.000217438 8.59829 0.000217438C10.3391 0.000217438 12.6132 0.465334 13.9867 1.7899C15.7275 3.42286 15.5614 5.60183 15.5614 7.97291V13.5745C15.5614 15.258 16.2558 15.9962 16.9098 16.9062C17.1412 17.2297 17.1916 17.619 16.8997 17.8617C16.1702 18.4734 14.8722 19.6109 14.1577 20.2479L14.1477 20.2378" fill="#2D2D2D"/>
</g>
<defs>
<clipPath id="clip0_424_1181">
<rect width="115.581" height="35" fill="white"/>
</clipPath>
</defs>
</svg>
