<svg width="30" height="35" viewBox="0 0 30 35" fill="none" xmlns="http://www.w3.org/2000/svg">
<g clip-path="url(#clip0_424_1201)">
<path d="M28.8633 27.2761C28.334 28.4989 27.7075 29.6245 26.9815 30.6594C25.9921 32.0701 25.1819 33.0466 24.5576 33.5889C23.5897 34.479 22.5527 34.9349 21.4422 34.9608C20.645 34.9608 19.6836 34.7339 18.5645 34.2738C17.4418 33.8158 16.4099 33.5889 15.4665 33.5889C14.477 33.5889 13.4158 33.8158 12.2807 34.2738C11.1439 34.7339 10.2281 34.9737 9.52791 34.9975C8.46303 35.0429 7.40162 34.5741 6.34214 33.5889C5.66593 32.9991 4.82012 31.988 3.80688 30.5557C2.71976 29.0261 1.82599 27.2524 1.1258 25.2302C0.375914 23.046 0 20.931 0 18.8833C0 16.5377 0.506836 14.5147 1.52202 12.8194C2.31986 11.4577 3.38128 10.3835 4.70973 9.59499C6.03817 8.80643 7.47356 8.40459 9.01934 8.37888C9.86515 8.37888 10.9743 8.64051 12.3527 9.15469C13.7271 9.6706 14.6097 9.93223 14.9966 9.93223C15.2859 9.93223 16.2663 9.62631 17.9283 9.01643C19.5 8.45083 20.8265 8.21663 21.9132 8.30889C24.8578 8.54653 27.0701 9.70733 28.5414 11.7986C25.9078 13.3943 24.6051 15.6293 24.631 18.4964C24.6548 20.7296 25.4649 22.588 27.0572 24.0636C27.7787 24.7484 28.5846 25.2777 29.4812 25.6537C29.2867 26.2175 29.0815 26.7576 28.8633 27.2761ZM22.1098 0.700725C22.1098 2.45112 21.4703 4.08547 20.1957 5.5982C18.6574 7.39654 16.7969 8.4357 14.7793 8.27173C14.7535 8.06173 14.7386 7.84072 14.7386 7.60848C14.7386 5.92809 15.4702 4.12975 16.7692 2.65937C17.4178 1.91489 18.2426 1.29586 19.2429 0.802048C20.241 0.315607 21.1851 0.0465937 22.0731 0.000526428C22.099 0.234527 22.1098 0.468543 22.1098 0.700703V0.700725Z" fill="#2D2D2D"/>
</g>
<defs>
<clipPath id="clip0_424_1201">
<rect width="29.4812" height="35" fill="white"/>
</clipPath>
</defs>
</svg>
