<svg width="61" height="40" viewBox="0 0 61 40" fill="none" xmlns="http://www.w3.org/2000/svg">
<g clip-path="url(#clip0_424_1191)">
<path d="M44.7856 20.0035C44.6866 19.8986 44.5695 19.8125 44.4398 19.7493C43.5114 19.1943 42.6002 18.6117 41.6476 18.1051C40.9858 17.7628 40.2979 17.4738 39.5902 17.2407C38.7258 16.9433 38.2261 16.2811 38.3419 15.3769C38.368 15.244 38.3598 15.1066 38.3181 14.9777C38.2763 14.8489 38.2024 14.7328 38.1034 14.6404C37.78 14.3188 37.7991 14.2566 38.2641 13.9903C38.177 13.8052 38.1053 13.6132 38.0498 13.4163C38.0249 13.2709 38.0404 13.1213 38.0947 12.9841C38.2399 12.6141 38.4301 12.2631 38.5684 11.8914C38.6739 11.6044 38.5684 11.4315 38.2226 11.4264C37.2543 11.395 36.3052 11.1481 35.4443 10.7037C34.9816 10.5047 34.5297 10.2814 34.0906 10.0346C33.3644 9.57469 32.64 9.64212 31.9052 9.94641C31.7548 10.0086 31.6563 10.1936 31.5335 10.3233L31.5992 10.4461L30.389 10.37C30.1175 10.3527 29.8115 10.2472 29.5816 10.3371C29.1701 10.4962 28.7932 10.434 28.399 10.3596L26.6908 10.0329C26.8309 10.4495 26.6009 10.4236 26.3883 10.3786C26.0425 10.3199 25.6829 10.2299 25.3267 10.1815C25.0709 10.1452 24.8081 10.1521 24.4433 10.1366L24.8132 10.6241C24.1434 10.8982 23.4069 10.9657 22.6984 10.8182C21.9898 10.6706 21.3415 10.3146 20.8368 9.79599C19.7994 8.6722 19.5141 7.2666 19.3897 5.8195C19.2323 4.00242 19.6853 2.30809 20.5135 0.700207C20.5998 0.505672 20.6737 0.305872 20.7348 0.102005L20.5964 0.00172806C20.3778 0.120077 20.169 0.255954 19.9723 0.408022C19.0293 1.23075 18.4021 2.35614 18.1984 3.59094C18.0843 4.2825 18.112 4.99654 18.0463 5.69675C18.0342 5.83506 17.8872 5.963 17.8025 6.0944C17.6953 5.97856 17.5121 5.86964 17.4982 5.74862C17.4412 5.25069 17.4325 4.74585 17.417 4.24447C17.4066 3.95055 17.417 3.65837 17.417 3.25726C17.2102 3.39215 17.035 3.57012 16.9034 3.77901C16.7718 3.98789 16.6869 4.22275 16.6545 4.4675C16.3658 5.91286 16.5767 7.27179 17.4274 8.50623C17.5315 8.68261 17.624 8.8657 17.704 9.05429L17.5311 9.15802C17.2919 8.90349 17.0723 8.63128 16.8741 8.34371C16.6165 7.91321 16.4298 7.43949 16.1825 6.99862C16.0758 6.84635 15.9516 6.70709 15.8126 6.58368C15.7451 6.77559 15.6725 6.96577 15.6137 7.15941C15.6056 7.21725 15.6097 7.27615 15.6258 7.3323C15.787 8.53217 16.3422 9.64449 17.2043 10.4945C18.2192 11.5093 19.4329 12.2113 20.7365 12.7818C20.8765 12.8441 21.0944 12.9841 21.0926 13.0844C21.1111 13.7005 21.0665 14.3169 20.9595 14.9239C20.7123 16.0201 19.6248 16.3797 18.7016 15.7279C18.131 15.3233 17.9374 15.3129 17.4429 15.8403C16.9478 16.3665 16.3154 16.7437 15.6172 16.9295C14.9809 17.1024 14.3499 17.3133 13.7154 17.5242C13.3876 17.6295 13.0685 17.7602 12.761 17.9149C12.6417 17.9772 12.576 18.1449 12.4861 18.2607L12.8094 18.4872L12.2908 18.8451L12.6504 19.1338C12.6133 19.1837 12.5819 19.2376 12.557 19.2946C12.519 19.4156 12.4913 19.5401 12.4585 19.6629C12.5933 19.6871 12.742 19.7597 12.8579 19.7251C13.1309 19.634 13.3963 19.5213 13.6514 19.388C14.7078 18.8693 15.778 18.3506 16.8119 17.7922C17.8457 17.2338 18.7897 17.3271 19.7942 17.8907C20.3596 18.2071 21.0218 18.3679 21.6545 18.5443C22.1888 18.693 22.6798 18.5149 23.1068 18.1708C23.4872 17.8631 23.8606 17.5467 24.2427 17.2389C24.5336 16.9876 24.8832 16.8137 25.2591 16.7333C25.6351 16.6529 26.0252 16.6686 26.3935 16.779C26.7949 16.9076 27.1881 17.0606 27.5709 17.2372C28.3281 17.5536 29.0629 17.9288 29.8375 18.195C31.0265 18.6279 32.3235 18.6655 33.5356 18.3022C34.5107 17.9962 35.3112 18.0757 35.9561 18.9194C36.269 19.324 36.6476 19.4381 37.1767 19.2808C38.3644 18.9212 39.5366 18.9488 40.6448 19.5937C41.1428 19.8842 41.6407 20.1764 42.1559 20.4305C42.6368 20.6615 43.1303 20.8653 43.6341 21.0408C43.7999 21.0795 43.9734 21.0672 44.132 21.0055C44.2906 20.9438 44.4268 20.8356 44.5228 20.695L45.0588 20.4858C44.9812 20.3177 44.8899 20.1564 44.7856 20.0035Z" fill="#2D2D2D"/>
<path d="M56.6269 25.8143C56.3235 25.5996 55.9956 25.422 55.65 25.2853C55.1642 25.1124 54.649 25.0311 54.1545 24.8842C52.9418 24.5267 51.6518 24.5267 50.4391 24.8842C48.3471 25.4979 46.6355 26.7012 45.6932 28.7759C45.5826 29.0197 45.5947 29.3274 45.4598 29.5522C44.9412 30.4339 45.0293 31.4108 44.9412 32.7749C45.0155 33.2279 45.1555 34.0716 45.2973 34.9153C45.5324 36.307 46.3762 37.3202 47.4567 38.1086C48.565 38.916 49.7181 39.6179 51.1894 39.7355C52.2458 39.8219 53.2555 40.0069 54.3395 39.7891C55.5152 39.5539 56.4453 38.9851 57.2908 38.2123C57.6071 37.9236 57.8406 37.5449 58.1466 37.2424C59.2825 36.122 59.8063 34.7199 60.0172 33.1829C60.2282 31.6459 59.9446 30.2299 59.3672 28.814C58.8191 27.4481 57.7921 26.5733 56.6269 25.8143ZM55.14 35.3233C54.1548 36.0768 52.9129 36.4128 51.6822 36.2586C50.0916 36.0633 49.2825 35.1366 48.743 33.6877C48.2728 32.4308 48.5165 31.3243 48.954 30.1815C49.0387 29.9672 49.1704 29.7746 49.3395 29.6179C50.019 28.9903 50.6656 28.4232 51.715 28.3057C52.557 28.2106 53.3264 28.3679 54.0767 28.5339C55.1867 28.7794 55.7953 29.7095 56.1393 30.733C56.3468 31.3485 56.3589 32.0297 56.4557 32.659C56.352 33.7483 55.937 34.7389 55.14 35.3302V35.3233Z" fill="#2D2D2D"/>
<path d="M31.6425 6.03216C31.5595 6.13417 31.5336 6.42808 31.6028 6.48168C31.9035 6.69332 32.217 6.88617 32.5416 7.05913C32.6367 7.20609 32.7508 7.41356 32.8874 7.42393C33.3749 7.4637 33.8676 7.43949 34.395 7.43949L33.5737 8.41978L33.9039 8.56328L33.368 8.98341C33.4977 9.05948 33.5634 9.10789 33.636 9.14074C34.2255 9.40699 34.8255 9.65076 35.4029 9.93949C36.3102 10.381 37.2828 10.6729 38.2833 10.8039C38.6844 10.8627 38.9541 10.7555 39.063 10.332C39.1236 10.1096 39.207 9.89403 39.312 9.6888C39.5471 9.18215 39.8804 8.7272 40.2927 8.3503C40.7049 7.97339 41.1878 7.68203 41.7134 7.49309C42.9358 7.0453 43.5132 6.20159 43.387 4.96024C43.349 4.58161 43.1571 4.40526 42.7992 4.43119C42.397 4.4532 41.9967 4.50229 41.601 4.57815C40.925 4.71646 40.3735 4.59717 39.8912 4.05948C39.35 3.44571 38.6809 3.03942 37.7992 3.16909C37.2665 3.23684 36.7268 3.119 36.2708 2.83541C35.9475 2.65214 35.6 2.44122 35.2473 2.40318C34.1065 2.24557 32.9486 2.53009 32.0108 3.19848C31.8717 3.32359 31.7438 3.4607 31.6287 3.60823C31.8898 3.69122 32.0644 3.74136 32.2321 3.80533C32.3185 3.83818 32.4655 3.90215 32.4638 3.94537C32.4482 4.32054 32.749 4.29115 32.9651 4.35166C33.138 4.4018 33.3109 4.43119 33.4752 4.47096L33.4925 4.59025C33.0965 4.87033 32.6954 5.14177 32.3082 5.43396C32.0644 5.60753 31.8411 5.80821 31.6425 6.03216ZM43.017 4.94641C43.017 5.0415 43.0758 5.24032 43.0032 5.31639C42.8673 5.46806 42.6848 5.57023 42.4845 5.60685C42.3363 5.63404 42.1832 5.60711 42.0531 5.53097C41.923 5.45482 41.8245 5.3345 41.7757 5.19191L43.017 4.94641Z" fill="#2D2D2D"/>
<path d="M15.9249 21.3676C16.1251 21.3396 16.3213 21.288 16.5093 21.2137C17.066 20.9129 17.6158 20.5999 18.15 20.2628C18.8762 19.8046 19.6421 19.5021 20.5117 19.5712C20.9281 19.6139 21.342 19.6792 21.7513 19.7666C22.9149 19.9983 23.9021 19.7355 24.7251 18.8364C25.1778 18.3764 25.6587 17.945 26.1652 17.545C26.4004 17.3461 26.3485 17.1663 26.1116 17.1024C25.8446 17.0133 25.5576 17.0037 25.2852 17.0747C24.9647 17.1993 24.6754 17.3929 24.4381 17.6418C23.3022 18.8053 22.0176 19.343 20.3786 18.8261C19.8418 18.6597 19.2879 18.5547 18.7275 18.5131C18.3588 18.4702 17.9854 18.53 17.6486 18.686C16.8222 19.1338 16.0062 19.6335 15.8298 20.7089L16.1116 20.8178L15.8679 21.2362L15.9249 21.3676Z" fill="#2D2D2D"/>
<path d="M40.3112 15.2092C39.9101 15.1833 39.5124 15.1072 39.1131 15.0761C38.8382 15.0553 38.7223 15.2057 38.7552 15.4806C38.7796 15.7933 38.9132 16.0873 39.1325 16.3114C39.3519 16.5355 39.643 16.6753 39.955 16.7064C40.3683 16.7531 40.7867 16.7445 41.2016 16.7825C42.2147 16.8741 43.2296 16.9658 44.241 17.0868C44.5557 17.1248 44.8531 17.2372 44.7804 16.7497L45.4426 16.8638L45.2905 16.4039L45.963 16.3399C45.9208 16.1595 45.8223 15.9971 45.6819 15.8763C45.5414 15.7554 45.3662 15.6823 45.1816 15.6674C44.1909 15.5135 43.1933 15.4011 42.1957 15.306C41.5699 15.2455 40.9423 15.2524 40.3112 15.2092Z" fill="#2D2D2D"/>
<path d="M17.7973 34.1165C18.9141 33.9972 20.0327 33.8987 21.1513 33.8019C23.0168 33.6394 24.8823 33.4907 26.7461 33.3247C27.2907 33.2763 27.4169 33.1518 27.4619 32.5968C27.5762 31.3171 27.4225 30.0275 27.0106 28.8105C26.4781 27.2735 25.4096 26.0806 24.0265 25.249C22.6036 24.3932 21.0165 24.139 19.3585 24.3672C18.1087 24.5247 16.9362 25.0576 15.9957 25.8956C15.4684 26.3658 15.0379 26.9467 14.5884 27.4965C13.7966 28.4647 13.4612 29.6266 13.3056 30.8333C13.1342 32.1341 13.217 33.4558 13.5493 34.7251C13.9919 36.435 14.9013 37.8371 16.3329 38.7967C16.5825 38.9642 16.843 39.1149 17.1126 39.2479C17.2578 39.3205 17.4048 39.3862 17.5535 39.4468C18.6136 39.8744 19.7565 40.0576 20.8972 39.9827C20.994 39.9827 21.0926 39.9931 21.1876 39.9827C21.2201 39.981 21.2524 39.9775 21.2845 39.9723C22.2457 39.8202 23.2537 39.7995 24.1579 39.4727C25.6638 38.9367 26.5974 37.704 27.3598 36.3434C27.4947 36.1065 27.4619 35.9405 27.2302 35.8057C26.7824 35.5463 26.3484 35.2576 25.8834 35.0329C24.865 34.5401 24.846 34.5418 24.0749 35.3786C23.5663 35.9181 22.8811 36.2574 22.1437 36.3347C21.6827 36.3981 21.2251 36.4488 20.771 36.4869C19.3879 36.6027 18.2468 36.1653 17.4083 35.0346C17.0089 34.4865 17.1282 34.1805 17.7973 34.1165ZM16.9484 30.3216C17.2129 29.222 17.9857 28.6272 18.9781 28.221C19.9334 27.8246 21.0033 27.8049 21.9726 28.1656C23.0428 28.5373 23.7879 29.2358 24.0179 30.4945C23.3073 30.5377 22.652 30.5826 21.9951 30.6189C20.4598 30.7019 18.9239 30.782 17.3875 30.8593C16.9484 30.8835 16.8446 30.7555 16.9484 30.3216Z" fill="#2D2D2D"/>
<path d="M11.3105 34.2669C11.0736 33.5149 10.7019 32.8838 10.0467 32.4153C9.87379 32.2925 9.6715 32.1473 9.91355 31.8966C10.2965 31.5082 10.5954 31.0451 10.7917 30.5362C10.988 30.0273 11.0775 29.4834 11.0546 28.9385C11.0546 28.1535 10.9077 27.4896 10.389 26.9156C9.17877 25.5757 7.77489 24.6525 5.87137 24.6923C4.83402 24.7147 3.77939 24.6369 2.7334 24.6162C2.03146 24.6024 1.3278 24.6162 0.625859 24.6041C0.340589 24.6041 0.233396 24.7009 0.229938 25.0121C0.216107 26.8949 0.174613 28.7794 0.143493 30.6639C0.117559 32.2441 0.0968152 33.8226 0.0656948 35.4028C0.0656948 35.6898 -0.0103779 35.9751 -4.50201e-06 36.2673C0.027658 37.0695 0.0812527 37.87 0.122746 38.6722H0.0777985C0.0777985 38.9315 0.0950875 39.1909 0.0777985 39.4502C0.0466781 39.8046 0.164239 39.9551 0.537683 39.9049C0.806958 39.8679 1.07956 39.8615 1.35027 39.8859C3.29011 40.0588 5.22821 39.9516 7.1594 39.7908C9.26867 39.6179 10.6725 38.4976 11.3468 36.48C11.5745 35.7578 11.5617 34.9813 11.3105 34.2669ZM3.69294 28.6757C3.69294 28.3299 3.82953 28.157 4.22372 28.2106C4.55621 28.2368 4.89013 28.2397 5.22302 28.2192C5.60166 28.2555 6.11687 28.2936 6.62863 28.3593C6.95885 28.4008 7.22856 28.603 7.23375 28.9333C7.23878 29.3557 7.18051 29.7764 7.06085 30.1815C7.01183 30.2736 6.94185 30.3529 6.85656 30.413C6.77127 30.473 6.67306 30.5122 6.56985 30.5273C5.7296 30.6207 4.88243 30.6622 4.037 30.7192C3.99127 30.7286 3.94396 30.7268 3.89906 30.7141C3.85417 30.7013 3.81301 30.6779 3.77908 30.6458C3.74516 30.6138 3.71946 30.574 3.70416 30.5299C3.68887 30.4858 3.68443 30.4386 3.69121 30.3925C3.69121 29.8237 3.68775 29.2497 3.69294 28.6757ZM6.44709 36.3537C5.95608 36.4402 5.44951 36.4454 4.94986 36.4869V36.4143C4.61791 36.4143 4.28768 36.4143 3.95746 36.4143C3.73098 36.4143 3.66009 36.3122 3.66874 36.0961C3.69121 35.5066 3.71542 34.917 3.7085 34.3292C3.69932 34.276 3.70201 34.2214 3.71639 34.1693C3.73076 34.1173 3.75646 34.069 3.79164 34.0281C3.82683 33.9871 3.87063 33.9544 3.91992 33.9323C3.96921 33.9103 4.02276 33.8994 4.07676 33.9004C4.96369 33.8226 5.85235 33.7379 6.74101 33.6999C7.14384 33.6826 7.52593 34.2358 7.58298 34.8133C7.66424 35.6587 7.28216 36.2085 6.44709 36.3537Z" fill="#2D2D2D"/>
<path d="M43.2106 35.4322C42.5571 35.1141 41.8604 34.879 41.1774 34.6214C40.8317 34.4865 40.5654 34.6214 40.3026 34.8928C39.9234 35.3019 39.5001 35.6677 39.0405 35.9837C38.2296 36.5128 37.2943 36.537 36.3728 36.4108C35.6812 36.3174 34.9516 36.2604 34.3984 35.7659C33.0308 34.5436 32.6937 32.9996 33.0948 31.2707C33.1776 30.9063 33.3152 30.5566 33.5028 30.2334C33.7241 29.8565 33.9644 29.4329 34.3102 29.1961C35.8023 28.1777 37.9599 27.9668 39.5108 29.0526C39.6822 29.184 39.8684 29.2949 40.0657 29.3828C40.1341 29.4129 40.208 29.4285 40.2827 29.4285C40.3574 29.4285 40.4313 29.4129 40.4997 29.3828C41.2137 28.8503 41.9174 28.3022 42.6003 27.7299C42.6466 27.6629 42.675 27.5852 42.6829 27.5041C42.6908 27.423 42.6778 27.3413 42.6453 27.2666C42.2718 26.8344 41.9261 26.307 41.4437 26.0564C39.9983 25.2991 38.5288 24.5245 36.8206 24.7026C35.166 24.6801 33.7483 25.3043 32.3963 26.1445C31.1137 26.9253 30.1925 28.1822 29.8341 29.6404C29.6553 30.2775 29.5207 30.9263 29.4312 31.5819C29.3033 32.6193 29.2774 33.648 29.6318 34.6542C29.9125 35.4708 30.309 36.2428 30.8092 36.9467C31.2915 37.6176 31.7912 38.2469 32.4862 38.7068C34.3258 39.917 36.3313 40.2092 38.4786 39.8548C40.6709 39.4917 42.3565 38.4111 43.4924 36.4938C43.8192 35.9509 43.795 35.7175 43.2106 35.4322Z" fill="#2D2D2D"/>
</g>
<defs>
<clipPath id="clip0_424_1191">
<rect width="60.0916" height="40" fill="white"/>
</clipPath>
</defs>
</svg>
