<svg width="107" height="35" viewBox="0 0 107 35" fill="none" xmlns="http://www.w3.org/2000/svg">
<path d="M45.5008 18.4188C45.5008 23.4543 41.5615 27.1649 36.7271 27.1649C31.8928 27.1649 27.9535 23.4543 27.9535 18.4188C27.9535 13.3478 31.8928 9.67276 36.7271 9.67276C41.5615 9.67276 45.5008 13.3478 45.5008 18.4188ZM41.6601 18.4188C41.6601 15.2721 39.377 13.1191 36.7271 13.1191C34.0773 13.1191 31.7942 15.2721 31.7942 18.4188C31.7942 21.5339 34.0773 23.7185 36.7271 23.7185C39.377 23.7185 41.6601 21.53 41.6601 18.4188Z" fill="#2D2D2D"/>
<path d="M64.4281 18.4188C64.4281 23.4543 60.4889 27.1649 55.6545 27.1649C50.8201 27.1649 46.8809 23.4543 46.8809 18.4188C46.8809 13.3518 50.8201 9.67276 55.6545 9.67276C60.4889 9.67276 64.4281 13.3478 64.4281 18.4188ZM60.5875 18.4188C60.5875 15.2721 58.3043 13.1191 55.6545 13.1191C53.0047 13.1191 50.7215 15.2721 50.7215 18.4188C50.7215 21.5339 53.0047 23.7185 55.6545 23.7185C58.3043 23.7185 60.5875 21.53 60.5875 18.4188Z" fill="#2D2D2D"/>
<path d="M82.5669 10.2011V25.903C82.5669 32.362 78.7578 35 74.2547 35C70.0157 35 67.4644 32.1648 66.5023 29.8462L69.8462 28.4543C70.4416 29.8778 71.9006 31.5576 74.2507 31.5576C77.1332 31.5576 78.9195 29.7792 78.9195 26.4314V25.1735H78.7854C77.9258 26.2342 76.2696 27.1609 74.1797 27.1609C69.8067 27.1609 65.8004 23.3518 65.8004 18.4503C65.8004 13.5134 69.8067 9.67276 74.1797 9.67276C76.2657 9.67276 77.9218 10.5994 78.7854 11.6286H78.9195V10.2051H82.5669V10.2011ZM79.1916 18.4503C79.1916 15.3707 77.1371 13.1191 74.5228 13.1191C71.873 13.1191 69.6529 15.3707 69.6529 18.4503C69.6529 21.4985 71.873 23.7185 74.5228 23.7185C77.1371 23.7185 79.1916 21.4985 79.1916 18.4503Z" fill="#2D2D2D"/>
<path d="M88.5803 0.997635V26.6285H84.8342V0.997635H88.5803Z" fill="#2D2D2D"/>
<path d="M103.178 21.2973L106.159 23.2847C105.197 24.7082 102.878 27.1609 98.8722 27.1609C93.9037 27.1609 90.1931 23.3202 90.1931 18.4149C90.1931 13.2138 93.9352 9.6688 98.4423 9.6688C102.981 9.6688 105.201 13.2808 105.927 15.2327L106.325 16.2264L94.6332 21.0686C95.5283 22.8234 96.9203 23.7185 98.8722 23.7185C100.828 23.7185 102.184 22.7563 103.178 21.2973ZM94.0023 18.1507L101.818 14.9054C101.388 13.8131 100.095 13.0521 98.5725 13.0521C96.6206 13.0521 93.9037 14.7753 94.0023 18.1507Z" fill="#2D2D2D"/>
<path d="M13.7736 16.1435V12.433H26.2776C26.3998 13.0796 26.4629 13.8446 26.4629 14.6727C26.4629 17.4566 25.7018 20.899 23.2492 23.3517C20.8635 25.8359 17.8154 27.1609 13.7776 27.1609C6.29336 27.1609 0 21.0646 0 13.5804C0 6.09621 6.29336 0 13.7776 0C17.918 0 20.8675 1.6246 23.0836 3.74211L20.4653 6.3604C18.8762 4.86987 16.7232 3.71056 13.7736 3.71056C8.30835 3.71056 4.03391 8.11513 4.03391 13.5804C4.03391 19.0457 8.30835 23.4503 13.7736 23.4503C17.3186 23.4503 19.3375 22.0268 20.6309 20.7334C21.6798 19.6845 22.3698 18.1861 22.6419 16.1396L13.7736 16.1435Z" fill="#2D2D2D"/>
</svg>
