<svg width="141" height="35" viewBox="0 0 141 35" fill="none" xmlns="http://www.w3.org/2000/svg">
<path d="M0.702026 7.64687C0.702026 7.64687 4.1548 21.7954 4.70585 24.0919C5.34902 26.7723 6.50791 27.7589 9.84919 27.0936L12.0052 18.3216C12.5516 16.1427 12.9181 14.5893 13.2694 12.3728H13.3312C13.578 14.611 13.9294 16.1492 14.3791 18.3292C14.3791 18.3292 15.2568 22.3114 15.7062 24.4031C16.1568 26.4939 17.4109 27.8117 20.6837 27.0943L25.8209 7.64836H21.6732L19.9194 16.0558C19.4479 18.503 19.02 20.4152 18.6901 22.6541H18.6316C18.3318 20.4376 17.9505 18.6011 17.4711 16.2167L15.6449 7.64836H11.3234L9.37008 16.0009C8.81668 18.5389 8.29909 20.5885 7.96995 22.7514H7.91034C7.57327 20.7145 7.12431 18.1386 6.63816 15.6817C6.63816 15.6817 5.47764 9.7076 5.07046 7.64836L0.70243 7.64892L0.702026 7.64687ZM40.2415 7.64687V27.0928H44.1905V22.9636V7.64594H40.2415V7.64687ZM95.8585 7.64687V21.9925C95.8585 23.9704 96.2307 25.3561 97.0271 26.2027C97.7228 26.9431 98.8688 27.4225 100.242 27.4225C101.41 27.4225 102.558 27.2011 103.1 26.9994L103.049 23.9135C102.646 24.0126 102.182 24.0919 101.549 24.0919C100.203 24.0919 99.7523 23.2304 99.7523 21.4545V15.9659H103.192V12.2454H99.7523V7.64693H95.8583L95.8585 7.64687ZM31.4165 12.1549C28.9624 12.1549 27.0142 12.8439 25.9523 13.4576L26.7295 16.1187C27.7013 15.506 29.2487 14.9988 30.7139 14.9988C33.1398 14.9925 33.5364 16.3704 33.5364 17.2542V17.4632C28.2505 17.4552 24.9116 19.2843 24.9116 23.0128C24.9116 25.2892 26.6113 27.4225 29.5668 27.4225C31.3861 27.4225 32.9077 26.6969 33.8196 25.5343H33.909C33.909 25.5343 34.5129 28.0591 37.8397 27.0936C37.665 26.0428 37.6082 24.9223 37.6082 23.5729V18.378C37.6082 15.0671 36.1945 12.1549 31.4165 12.1549L31.4165 12.1549ZM55.0386 12.1549C52.5675 12.1549 51.457 13.4071 50.7837 14.4696H50.7252V12.4846H46.9566V27.0937H50.9266V18.5261C50.9266 18.1245 50.9725 17.6997 51.1127 17.3302C51.4416 16.4676 52.2441 15.4586 53.5255 15.4586C55.1273 15.4586 55.8769 16.8129 55.8769 18.7673V27.0936H59.8426V18.4223C59.8426 18.0389 59.8951 17.5771 60.008 17.2381C60.334 16.2569 61.1992 15.4584 62.3903 15.4584C64.0142 15.4584 64.7936 16.7892 64.7936 19.089V27.0936H68.7621V18.4893C68.7621 13.9516 66.4579 12.1549 63.857 12.1549C62.7051 12.1549 61.7959 12.4438 60.9739 12.9484C60.2829 13.3724 59.6644 13.9748 59.1237 14.768H59.0652C58.4362 13.1936 56.9604 12.1549 55.0379 12.1549L55.0386 12.1549ZM76.8387 12.1549C74.3851 12.1549 72.4374 12.8439 71.3746 13.4576L72.1528 16.1187C73.1237 15.506 74.6721 14.9988 76.1365 14.9988C78.5607 14.9925 78.9582 16.3704 78.9582 17.2542V17.4632C73.673 17.4552 70.3338 19.2843 70.3338 23.0128C70.3338 25.2892 72.0343 27.4225 74.9914 27.4225C76.8093 27.4225 78.3314 26.6969 79.2416 25.5343H79.3314C79.3314 25.5343 79.9352 28.0591 83.2625 27.0936C83.0874 26.0428 83.0313 24.9223 83.0313 23.5729V18.378C83.0313 15.0671 81.6172 12.1549 76.8387 12.1549L76.8387 12.1549ZM93.3249 12.1549C91.8047 12.1549 90.0751 13.1361 89.3492 15.2397H89.2383V12.4844H85.6646V27.0936H89.7385V19.6128C89.7385 19.2092 89.763 18.8573 89.8269 18.5347C90.1282 16.9676 91.3268 15.9659 93.047 15.9659C93.5192 15.9659 93.8572 16.017 94.2229 16.0698V12.2452C93.9163 12.1833 93.7066 12.1547 93.3251 12.1547L93.3249 12.1549ZM33.6639 20.052V21.8745C33.6639 22.1441 33.6404 22.4222 33.5658 22.6654C33.2601 23.6776 32.2116 24.533 30.9008 24.533C29.8079 24.533 28.9398 23.9127 28.9398 22.6006C28.9398 20.5937 31.149 20.0389 33.664 20.052H33.6639ZM79.0861 20.052V21.8745C79.0861 22.1441 79.0622 22.4222 78.988 22.6654C78.6824 23.6776 77.6342 24.533 76.3234 24.533C75.2303 24.533 74.362 23.9127 74.362 22.6006C74.362 20.5937 76.5712 20.0389 79.0862 20.052H79.0861Z" fill="#2D2D2D"/>
<path d="M124.543 0.614037C123.268 0.614037 122.255 1.32597 122.255 2.19267L123.029 10.9596C123.115 11.4878 123.762 11.8952 124.544 11.8952C125.327 11.8942 125.972 11.4871 126.059 10.9596L126.837 2.19267C126.837 1.32604 125.821 0.614111 124.545 0.614111L124.543 0.614037ZM111.926 7.64646C111.264 7.66216 110.512 8.16326 110.034 8.99245C109.394 10.0966 109.508 11.3305 110.256 11.7634L118.235 15.479C118.733 15.6644 119.41 15.3104 119.802 14.6346C119.802 14.6345 119.802 14.6344 119.802 14.6343C120.196 13.9551 120.165 13.1915 119.751 12.8528L112.545 7.7985C112.358 7.69011 112.147 7.64133 111.926 7.64656L111.926 7.64646ZM137.16 7.64646C136.94 7.64122 136.729 7.69 136.543 7.79839L129.336 12.8527C128.923 13.1914 128.893 13.955 129.285 14.6342L129.285 14.6345C129.679 15.3103 130.353 15.6643 130.852 15.4789L138.834 11.7635C139.585 11.3306 139.693 10.0967 139.058 8.99253C138.577 8.16331 137.824 7.66224 137.162 7.64653L137.16 7.64646ZM118.533 19.2132C118.429 19.2118 118.329 19.2277 118.236 19.263L110.257 22.9741C109.509 23.4089 109.395 24.6433 110.035 25.7486C110.673 26.8506 111.797 27.3745 112.545 26.9423L119.752 21.8919C120.167 21.5491 120.197 20.7857 119.803 20.1072L119.806 20.1087C119.488 19.5561 118.98 19.2192 118.533 19.2131L118.533 19.2132ZM130.557 19.2132C130.11 19.2193 129.603 19.5562 129.284 20.1088L129.287 20.1073C128.895 20.7858 128.925 21.5492 129.337 21.8921L136.544 26.9424C137.292 27.3746 138.417 26.8507 139.057 25.7487C139.692 24.6434 139.585 23.409 138.833 22.9743L130.854 19.2631C130.76 19.2278 130.66 19.2119 130.557 19.2133L130.557 19.2132ZM124.542 22.8465C123.761 22.8475 123.116 23.2532 123.03 23.78L122.256 32.5465C122.256 33.4147 123.269 34.1252 124.544 34.1252C125.821 34.1252 126.837 33.4147 126.837 32.5465L126.061 23.78C125.973 23.2532 125.329 22.8475 124.545 22.8465H124.542H124.542Z" fill="#2D2D2D"/>
</svg>
